%FSLAX45Y45*%
G04 Gerber Fmt 4.5, Leading zero omitted, Abs format (unit mm)*
G04 Created by KiCad (PCBNEW (6.0.2)) date 2022-02-18 01:26:50*
%MOMM*%
%LPD*%
G01*
G04 APERTURE LIST*
%TA.AperFunction,Profile*%
%ADD10C,0.100000*%
%TD*%
%ADD11C,0.200000*%
%ADD12C,0.320000*%
G04 APERTURE END LIST*
D10*
X27940000Y-1841500D02*
X15684500Y-1841500D01*
X27940000Y-7112000D02*
X27940000Y-1841500D01*
X15684500Y-7112000D02*
X27940000Y-7112000D01*
X15684500Y-1841500D02*
X15684500Y-7112000D01*
D11*
D12*
X16184900Y-6482100D02*
X16504900Y-6802100D01*
X16504900Y-6482100D02*
X16184900Y-6802100D01*
X16201200Y-2164100D02*
X16521200Y-2484100D01*
X16521200Y-2164100D02*
X16201200Y-2484100D01*
X24795500Y-2164100D02*
X25115500Y-2484100D01*
X25115500Y-2164100D02*
X24795500Y-2484100D01*
X24795500Y-6482100D02*
X25115500Y-6802100D01*
X25115500Y-6482100D02*
X24795500Y-6802100D01*
X26699300Y-2873800D02*
X27019300Y-3193800D01*
X27019300Y-2873800D02*
X26699300Y-3193800D01*
X26699300Y-4016800D02*
X27019300Y-4336800D01*
X27019300Y-4016800D02*
X26699300Y-4336800D01*
X26699700Y-4959300D02*
X27019700Y-5279300D01*
X27019700Y-4959300D02*
X26699700Y-5279300D01*
X26699700Y-6102300D02*
X27019700Y-6422300D01*
X27019700Y-6102300D02*
X26699700Y-6422300D01*
D11*
X15937119Y-7427476D02*
X15937119Y-7227476D01*
X15984738Y-7227476D01*
X16013309Y-7237000D01*
X16032357Y-7256048D01*
X16041881Y-7275095D01*
X16051405Y-7313190D01*
X16051405Y-7341762D01*
X16041881Y-7379857D01*
X16032357Y-7398905D01*
X16013309Y-7417952D01*
X15984738Y-7427476D01*
X15937119Y-7427476D01*
X16137119Y-7427476D02*
X16137119Y-7294143D01*
X16137119Y-7332238D02*
X16146643Y-7313190D01*
X16156167Y-7303667D01*
X16175214Y-7294143D01*
X16194262Y-7294143D01*
X16260928Y-7427476D02*
X16260928Y-7294143D01*
X16260928Y-7227476D02*
X16251405Y-7237000D01*
X16260928Y-7246524D01*
X16270452Y-7237000D01*
X16260928Y-7227476D01*
X16260928Y-7246524D01*
X16384738Y-7427476D02*
X16365690Y-7417952D01*
X16356167Y-7398905D01*
X16356167Y-7227476D01*
X16489500Y-7427476D02*
X16470452Y-7417952D01*
X16460928Y-7398905D01*
X16460928Y-7227476D01*
X16718071Y-7427476D02*
X16718071Y-7227476D01*
X16784738Y-7370333D01*
X16851405Y-7227476D01*
X16851405Y-7427476D01*
X17032357Y-7427476D02*
X17032357Y-7322714D01*
X17022833Y-7303667D01*
X17003786Y-7294143D01*
X16965690Y-7294143D01*
X16946643Y-7303667D01*
X17032357Y-7417952D02*
X17013310Y-7427476D01*
X16965690Y-7427476D01*
X16946643Y-7417952D01*
X16937119Y-7398905D01*
X16937119Y-7379857D01*
X16946643Y-7360809D01*
X16965690Y-7351286D01*
X17013310Y-7351286D01*
X17032357Y-7341762D01*
X17127595Y-7294143D02*
X17127595Y-7494143D01*
X17127595Y-7303667D02*
X17146643Y-7294143D01*
X17184738Y-7294143D01*
X17203786Y-7303667D01*
X17213310Y-7313190D01*
X17222833Y-7332238D01*
X17222833Y-7389381D01*
X17213310Y-7408428D01*
X17203786Y-7417952D01*
X17184738Y-7427476D01*
X17146643Y-7427476D01*
X17127595Y-7417952D01*
X17308548Y-7408428D02*
X17318071Y-7417952D01*
X17308548Y-7427476D01*
X17299024Y-7417952D01*
X17308548Y-7408428D01*
X17308548Y-7427476D01*
X17308548Y-7303667D02*
X17318071Y-7313190D01*
X17308548Y-7322714D01*
X17299024Y-7313190D01*
X17308548Y-7303667D01*
X17308548Y-7322714D01*
X15479500Y-7657000D02*
X15679500Y-7857000D01*
X15679500Y-7657000D02*
X15479500Y-7857000D01*
X15918071Y-7647476D02*
X16041881Y-7647476D01*
X15975214Y-7723667D01*
X16003786Y-7723667D01*
X16022833Y-7733190D01*
X16032357Y-7742714D01*
X16041881Y-7761762D01*
X16041881Y-7809381D01*
X16032357Y-7828428D01*
X16022833Y-7837952D01*
X16003786Y-7847476D01*
X15946643Y-7847476D01*
X15927595Y-7837952D01*
X15918071Y-7828428D01*
X16127595Y-7828428D02*
X16137119Y-7837952D01*
X16127595Y-7847476D01*
X16118071Y-7837952D01*
X16127595Y-7828428D01*
X16127595Y-7847476D01*
X16213309Y-7666524D02*
X16222833Y-7657000D01*
X16241881Y-7647476D01*
X16289500Y-7647476D01*
X16308548Y-7657000D01*
X16318071Y-7666524D01*
X16327595Y-7685571D01*
X16327595Y-7704619D01*
X16318071Y-7733190D01*
X16203786Y-7847476D01*
X16327595Y-7847476D01*
X16451405Y-7647476D02*
X16470452Y-7647476D01*
X16489500Y-7657000D01*
X16499024Y-7666524D01*
X16508548Y-7685571D01*
X16518071Y-7723667D01*
X16518071Y-7771286D01*
X16508548Y-7809381D01*
X16499024Y-7828428D01*
X16489500Y-7837952D01*
X16470452Y-7847476D01*
X16451405Y-7847476D01*
X16432357Y-7837952D01*
X16422833Y-7828428D01*
X16413309Y-7809381D01*
X16403786Y-7771286D01*
X16403786Y-7723667D01*
X16413309Y-7685571D01*
X16422833Y-7666524D01*
X16432357Y-7657000D01*
X16451405Y-7647476D01*
X16641881Y-7647476D02*
X16660928Y-7647476D01*
X16679976Y-7657000D01*
X16689500Y-7666524D01*
X16699024Y-7685571D01*
X16708548Y-7723667D01*
X16708548Y-7771286D01*
X16699024Y-7809381D01*
X16689500Y-7828428D01*
X16679976Y-7837952D01*
X16660928Y-7847476D01*
X16641881Y-7847476D01*
X16622833Y-7837952D01*
X16613309Y-7828428D01*
X16603786Y-7809381D01*
X16594262Y-7771286D01*
X16594262Y-7723667D01*
X16603786Y-7685571D01*
X16613309Y-7666524D01*
X16622833Y-7657000D01*
X16641881Y-7647476D01*
X16794262Y-7847476D02*
X16794262Y-7714143D01*
X16794262Y-7733190D02*
X16803786Y-7723667D01*
X16822833Y-7714143D01*
X16851405Y-7714143D01*
X16870452Y-7723667D01*
X16879976Y-7742714D01*
X16879976Y-7847476D01*
X16879976Y-7742714D02*
X16889500Y-7723667D01*
X16908548Y-7714143D01*
X16937119Y-7714143D01*
X16956167Y-7723667D01*
X16965690Y-7742714D01*
X16965690Y-7847476D01*
X17060929Y-7847476D02*
X17060929Y-7714143D01*
X17060929Y-7733190D02*
X17070452Y-7723667D01*
X17089500Y-7714143D01*
X17118071Y-7714143D01*
X17137119Y-7723667D01*
X17146643Y-7742714D01*
X17146643Y-7847476D01*
X17146643Y-7742714D02*
X17156167Y-7723667D01*
X17175214Y-7714143D01*
X17203786Y-7714143D01*
X17222833Y-7723667D01*
X17232357Y-7742714D01*
X17232357Y-7847476D01*
X17622833Y-7637952D02*
X17451405Y-7895095D01*
X17879976Y-7647476D02*
X17899024Y-7647476D01*
X17918071Y-7657000D01*
X17927595Y-7666524D01*
X17937119Y-7685571D01*
X17946643Y-7723667D01*
X17946643Y-7771286D01*
X17937119Y-7809381D01*
X17927595Y-7828428D01*
X17918071Y-7837952D01*
X17899024Y-7847476D01*
X17879976Y-7847476D01*
X17860929Y-7837952D01*
X17851405Y-7828428D01*
X17841881Y-7809381D01*
X17832357Y-7771286D01*
X17832357Y-7723667D01*
X17841881Y-7685571D01*
X17851405Y-7666524D01*
X17860929Y-7657000D01*
X17879976Y-7647476D01*
X18032357Y-7828428D02*
X18041881Y-7837952D01*
X18032357Y-7847476D01*
X18022833Y-7837952D01*
X18032357Y-7828428D01*
X18032357Y-7847476D01*
X18232357Y-7847476D02*
X18118071Y-7847476D01*
X18175214Y-7847476D02*
X18175214Y-7647476D01*
X18156167Y-7676048D01*
X18137119Y-7695095D01*
X18118071Y-7704619D01*
X18308548Y-7666524D02*
X18318071Y-7657000D01*
X18337119Y-7647476D01*
X18384738Y-7647476D01*
X18403786Y-7657000D01*
X18413310Y-7666524D01*
X18422833Y-7685571D01*
X18422833Y-7704619D01*
X18413310Y-7733190D01*
X18299024Y-7847476D01*
X18422833Y-7847476D01*
X18594262Y-7647476D02*
X18556167Y-7647476D01*
X18537119Y-7657000D01*
X18527595Y-7666524D01*
X18508548Y-7695095D01*
X18499024Y-7733190D01*
X18499024Y-7809381D01*
X18508548Y-7828428D01*
X18518071Y-7837952D01*
X18537119Y-7847476D01*
X18575214Y-7847476D01*
X18594262Y-7837952D01*
X18603786Y-7828428D01*
X18613310Y-7809381D01*
X18613310Y-7761762D01*
X18603786Y-7742714D01*
X18594262Y-7733190D01*
X18575214Y-7723667D01*
X18537119Y-7723667D01*
X18518071Y-7733190D01*
X18508548Y-7742714D01*
X18499024Y-7761762D01*
X18737119Y-7647476D02*
X18756167Y-7647476D01*
X18775214Y-7657000D01*
X18784738Y-7666524D01*
X18794262Y-7685571D01*
X18803786Y-7723667D01*
X18803786Y-7771286D01*
X18794262Y-7809381D01*
X18784738Y-7828428D01*
X18775214Y-7837952D01*
X18756167Y-7847476D01*
X18737119Y-7847476D01*
X18718071Y-7837952D01*
X18708548Y-7828428D01*
X18699024Y-7809381D01*
X18689500Y-7771286D01*
X18689500Y-7723667D01*
X18699024Y-7685571D01*
X18708548Y-7666524D01*
X18718071Y-7657000D01*
X18737119Y-7647476D01*
X18879976Y-7647476D02*
X18879976Y-7685571D01*
X18956167Y-7647476D02*
X18956167Y-7685571D01*
X19251405Y-7923667D02*
X19241881Y-7914143D01*
X19222833Y-7885571D01*
X19213310Y-7866524D01*
X19203786Y-7837952D01*
X19194262Y-7790333D01*
X19194262Y-7752238D01*
X19203786Y-7704619D01*
X19213310Y-7676048D01*
X19222833Y-7657000D01*
X19241881Y-7628428D01*
X19251405Y-7618905D01*
X19356167Y-7733190D02*
X19337119Y-7723667D01*
X19327595Y-7714143D01*
X19318071Y-7695095D01*
X19318071Y-7685571D01*
X19327595Y-7666524D01*
X19337119Y-7657000D01*
X19356167Y-7647476D01*
X19394262Y-7647476D01*
X19413310Y-7657000D01*
X19422833Y-7666524D01*
X19432357Y-7685571D01*
X19432357Y-7695095D01*
X19422833Y-7714143D01*
X19413310Y-7723667D01*
X19394262Y-7733190D01*
X19356167Y-7733190D01*
X19337119Y-7742714D01*
X19327595Y-7752238D01*
X19318071Y-7771286D01*
X19318071Y-7809381D01*
X19327595Y-7828428D01*
X19337119Y-7837952D01*
X19356167Y-7847476D01*
X19394262Y-7847476D01*
X19413310Y-7837952D01*
X19422833Y-7828428D01*
X19432357Y-7809381D01*
X19432357Y-7771286D01*
X19422833Y-7752238D01*
X19413310Y-7742714D01*
X19394262Y-7733190D01*
X19670452Y-7847476D02*
X19670452Y-7647476D01*
X19756167Y-7847476D02*
X19756167Y-7742714D01*
X19746643Y-7723667D01*
X19727595Y-7714143D01*
X19699024Y-7714143D01*
X19679976Y-7723667D01*
X19670452Y-7733190D01*
X19879976Y-7847476D02*
X19860929Y-7837952D01*
X19851405Y-7828428D01*
X19841881Y-7809381D01*
X19841881Y-7752238D01*
X19851405Y-7733190D01*
X19860929Y-7723667D01*
X19879976Y-7714143D01*
X19908548Y-7714143D01*
X19927595Y-7723667D01*
X19937119Y-7733190D01*
X19946643Y-7752238D01*
X19946643Y-7809381D01*
X19937119Y-7828428D01*
X19927595Y-7837952D01*
X19908548Y-7847476D01*
X19879976Y-7847476D01*
X20060929Y-7847476D02*
X20041881Y-7837952D01*
X20032357Y-7818905D01*
X20032357Y-7647476D01*
X20213310Y-7837952D02*
X20194262Y-7847476D01*
X20156167Y-7847476D01*
X20137119Y-7837952D01*
X20127595Y-7818905D01*
X20127595Y-7742714D01*
X20137119Y-7723667D01*
X20156167Y-7714143D01*
X20194262Y-7714143D01*
X20213310Y-7723667D01*
X20222833Y-7742714D01*
X20222833Y-7761762D01*
X20127595Y-7780809D01*
X20299024Y-7837952D02*
X20318071Y-7847476D01*
X20356167Y-7847476D01*
X20375214Y-7837952D01*
X20384738Y-7818905D01*
X20384738Y-7809381D01*
X20375214Y-7790333D01*
X20356167Y-7780809D01*
X20327595Y-7780809D01*
X20308548Y-7771286D01*
X20299024Y-7752238D01*
X20299024Y-7742714D01*
X20308548Y-7723667D01*
X20327595Y-7714143D01*
X20356167Y-7714143D01*
X20375214Y-7723667D01*
X20451405Y-7923667D02*
X20460929Y-7914143D01*
X20479976Y-7885571D01*
X20489500Y-7866524D01*
X20499024Y-7837952D01*
X20508548Y-7790333D01*
X20508548Y-7752238D01*
X20499024Y-7704619D01*
X20489500Y-7676048D01*
X20479976Y-7657000D01*
X20460929Y-7628428D01*
X20451405Y-7618905D01*
X20813310Y-7923667D02*
X20803786Y-7914143D01*
X20784738Y-7885571D01*
X20775214Y-7866524D01*
X20765690Y-7837952D01*
X20756167Y-7790333D01*
X20756167Y-7752238D01*
X20765690Y-7704619D01*
X20775214Y-7676048D01*
X20784738Y-7657000D01*
X20803786Y-7628428D01*
X20813310Y-7618905D01*
X20889500Y-7714143D02*
X20889500Y-7847476D01*
X20889500Y-7733190D02*
X20899024Y-7723667D01*
X20918071Y-7714143D01*
X20946643Y-7714143D01*
X20965690Y-7723667D01*
X20975214Y-7742714D01*
X20975214Y-7847476D01*
X21099024Y-7847476D02*
X21079976Y-7837952D01*
X21070452Y-7828428D01*
X21060929Y-7809381D01*
X21060929Y-7752238D01*
X21070452Y-7733190D01*
X21079976Y-7723667D01*
X21099024Y-7714143D01*
X21127595Y-7714143D01*
X21146643Y-7723667D01*
X21156167Y-7733190D01*
X21165690Y-7752238D01*
X21165690Y-7809381D01*
X21156167Y-7828428D01*
X21146643Y-7837952D01*
X21127595Y-7847476D01*
X21099024Y-7847476D01*
X21222833Y-7714143D02*
X21299024Y-7714143D01*
X21251405Y-7647476D02*
X21251405Y-7818905D01*
X21260929Y-7837952D01*
X21279976Y-7847476D01*
X21299024Y-7847476D01*
X21518071Y-7714143D02*
X21518071Y-7914143D01*
X21518071Y-7723667D02*
X21537119Y-7714143D01*
X21575214Y-7714143D01*
X21594262Y-7723667D01*
X21603786Y-7733190D01*
X21613310Y-7752238D01*
X21613310Y-7809381D01*
X21603786Y-7828428D01*
X21594262Y-7837952D01*
X21575214Y-7847476D01*
X21537119Y-7847476D01*
X21518071Y-7837952D01*
X21727595Y-7847476D02*
X21708548Y-7837952D01*
X21699024Y-7818905D01*
X21699024Y-7647476D01*
X21889500Y-7847476D02*
X21889500Y-7742714D01*
X21879976Y-7723667D01*
X21860929Y-7714143D01*
X21822833Y-7714143D01*
X21803786Y-7723667D01*
X21889500Y-7837952D02*
X21870452Y-7847476D01*
X21822833Y-7847476D01*
X21803786Y-7837952D01*
X21794262Y-7818905D01*
X21794262Y-7799857D01*
X21803786Y-7780809D01*
X21822833Y-7771286D01*
X21870452Y-7771286D01*
X21889500Y-7761762D01*
X21956167Y-7714143D02*
X22032357Y-7714143D01*
X21984738Y-7647476D02*
X21984738Y-7818905D01*
X21994262Y-7837952D01*
X22013310Y-7847476D01*
X22032357Y-7847476D01*
X22175214Y-7837952D02*
X22156167Y-7847476D01*
X22118071Y-7847476D01*
X22099024Y-7837952D01*
X22089500Y-7818905D01*
X22089500Y-7742714D01*
X22099024Y-7723667D01*
X22118071Y-7714143D01*
X22156167Y-7714143D01*
X22175214Y-7723667D01*
X22184738Y-7742714D01*
X22184738Y-7761762D01*
X22089500Y-7780809D01*
X22356167Y-7847476D02*
X22356167Y-7647476D01*
X22356167Y-7837952D02*
X22337119Y-7847476D01*
X22299024Y-7847476D01*
X22279976Y-7837952D01*
X22270452Y-7828428D01*
X22260929Y-7809381D01*
X22260929Y-7752238D01*
X22270452Y-7733190D01*
X22279976Y-7723667D01*
X22299024Y-7714143D01*
X22337119Y-7714143D01*
X22356167Y-7723667D01*
X22432357Y-7923667D02*
X22441881Y-7914143D01*
X22460928Y-7885571D01*
X22470452Y-7866524D01*
X22479976Y-7837952D01*
X22489500Y-7790333D01*
X22489500Y-7752238D01*
X22479976Y-7704619D01*
X22470452Y-7676048D01*
X22460928Y-7657000D01*
X22441881Y-7628428D01*
X22432357Y-7618905D01*
M02*
