%FSLAX45Y45*%
G04 Gerber Fmt 4.5, Leading zero omitted, Abs format (unit mm)*
G04 Created by KiCad (PCBNEW (6.0.2)) date 2022-02-18 01:26:50*
%MOMM*%
%LPD*%
G01*
G04 APERTURE LIST*
%TA.AperFunction,Profile*%
%ADD10C,0.100000*%
%TD*%
%ADD11C,0.200000*%
%ADD12C,0.080000*%
%ADD13C,0.150000*%
G04 APERTURE END LIST*
D10*
X27940000Y-1841500D02*
X15684500Y-1841500D01*
X27940000Y-7112000D02*
X27940000Y-1841500D01*
X15684500Y-7112000D02*
X27940000Y-7112000D01*
X15684500Y-1841500D02*
X15684500Y-7112000D01*
D11*
D12*
X16939900Y-3541400D02*
X17019900Y-3621400D01*
X17019900Y-3541400D02*
X16939900Y-3621400D01*
X16965300Y-4544700D02*
X17045300Y-4624700D01*
X17045300Y-4544700D02*
X16965300Y-4624700D01*
X16987020Y-4243691D02*
X17067020Y-4323691D01*
X17067020Y-4243691D02*
X16987020Y-4323691D01*
X17422500Y-4532000D02*
X17502500Y-4612000D01*
X17502500Y-4532000D02*
X17422500Y-4612000D01*
X18756000Y-2119000D02*
X18836000Y-2199000D01*
X18836000Y-2119000D02*
X18756000Y-2199000D01*
X18756000Y-2627000D02*
X18836000Y-2707000D01*
X18836000Y-2627000D02*
X18756000Y-2707000D01*
X19035400Y-6132200D02*
X19115400Y-6212200D01*
X19115400Y-6132200D02*
X19035400Y-6212200D01*
X19479900Y-6132200D02*
X19559900Y-6212200D01*
X19559900Y-6132200D02*
X19479900Y-6212200D01*
X21588100Y-5713101D02*
X21668100Y-5793101D01*
X21668100Y-5713101D02*
X21588100Y-5793101D01*
X21608420Y-3645540D02*
X21688420Y-3725540D01*
X21688420Y-3645540D02*
X21608420Y-3725540D01*
X21765900Y-4712197D02*
X21845900Y-4792197D01*
X21845900Y-4712197D02*
X21765900Y-4792197D01*
X21765900Y-5230500D02*
X21845900Y-5310500D01*
X21845900Y-5230500D02*
X21765900Y-5310500D01*
X21945296Y-5714696D02*
X22025296Y-5794696D01*
X22025296Y-5714696D02*
X21945296Y-5794696D01*
X22058000Y-3635380D02*
X22138000Y-3715380D01*
X22138000Y-3635380D02*
X22058000Y-3715380D01*
X25118700Y-4811400D02*
X25198700Y-4891400D01*
X25198700Y-4811400D02*
X25118700Y-4891400D01*
X25121010Y-4637621D02*
X25201010Y-4717621D01*
X25201010Y-4637621D02*
X25121010Y-4717621D01*
X25123780Y-4045270D02*
X25203780Y-4125270D01*
X25203780Y-4045270D02*
X25123780Y-4125270D01*
X25489540Y-4112900D02*
X25569540Y-4192900D01*
X25569540Y-4112900D02*
X25489540Y-4192900D01*
X25492400Y-4637621D02*
X25572400Y-4717621D01*
X25572400Y-4637621D02*
X25492400Y-4717621D01*
X25657180Y-3796785D02*
X25737180Y-3876785D01*
X25737180Y-3796785D02*
X25657180Y-3876785D01*
X25667825Y-3469084D02*
X25747825Y-3549084D01*
X25747825Y-3469084D02*
X25667825Y-3549084D01*
X25687971Y-4811400D02*
X25767971Y-4891400D01*
X25767971Y-4811400D02*
X25687971Y-4891400D01*
X25693371Y-4637599D02*
X25773371Y-4717599D01*
X25773371Y-4637599D02*
X25693371Y-4717599D01*
X25704635Y-4258755D02*
X25784635Y-4338755D01*
X25784635Y-4258755D02*
X25704635Y-4338755D01*
X18010500Y-4686300D02*
G75*
G03*
X18010500Y-4686300I-40000J0D01*
G01*
X18010500Y-5448300D02*
G75*
G03*
X18010500Y-5448300I-40000J0D01*
G01*
X18010500Y-6680200D02*
G75*
G03*
X18010500Y-6680200I-40000J0D01*
G01*
X18264500Y-4686300D02*
G75*
G03*
X18264500Y-4686300I-40000J0D01*
G01*
X18264500Y-5448300D02*
G75*
G03*
X18264500Y-5448300I-40000J0D01*
G01*
X18264500Y-6680200D02*
G75*
G03*
X18264500Y-6680200I-40000J0D01*
G01*
X18518500Y-4686300D02*
G75*
G03*
X18518500Y-4686300I-40000J0D01*
G01*
X18518500Y-5448300D02*
G75*
G03*
X18518500Y-5448300I-40000J0D01*
G01*
X18518500Y-6680200D02*
G75*
G03*
X18518500Y-6680200I-40000J0D01*
G01*
X18772500Y-4686300D02*
G75*
G03*
X18772500Y-4686300I-40000J0D01*
G01*
X18772500Y-5448300D02*
G75*
G03*
X18772500Y-5448300I-40000J0D01*
G01*
X18772500Y-6680200D02*
G75*
G03*
X18772500Y-6680200I-40000J0D01*
G01*
X19026500Y-4686300D02*
G75*
G03*
X19026500Y-4686300I-40000J0D01*
G01*
X19026500Y-5448300D02*
G75*
G03*
X19026500Y-5448300I-40000J0D01*
G01*
X19280500Y-4686300D02*
G75*
G03*
X19280500Y-4686300I-40000J0D01*
G01*
X19280500Y-5448300D02*
G75*
G03*
X19280500Y-5448300I-40000J0D01*
G01*
X19534500Y-4686300D02*
G75*
G03*
X19534500Y-4686300I-40000J0D01*
G01*
X19534500Y-5448300D02*
G75*
G03*
X19534500Y-5448300I-40000J0D01*
G01*
X19788500Y-4686300D02*
G75*
G03*
X19788500Y-4686300I-40000J0D01*
G01*
X19788500Y-5448300D02*
G75*
G03*
X19788500Y-5448300I-40000J0D01*
G01*
X20042500Y-4686300D02*
G75*
G03*
X20042500Y-4686300I-40000J0D01*
G01*
X20042500Y-5448300D02*
G75*
G03*
X20042500Y-5448300I-40000J0D01*
G01*
X20062500Y-6083300D02*
G75*
G03*
X20062500Y-6083300I-40000J0D01*
G01*
X20296500Y-4686300D02*
G75*
G03*
X20296500Y-4686300I-40000J0D01*
G01*
X20296500Y-5448300D02*
G75*
G03*
X20296500Y-5448300I-40000J0D01*
G01*
X20550500Y-4686300D02*
G75*
G03*
X20550500Y-4686300I-40000J0D01*
G01*
X20550500Y-5448300D02*
G75*
G03*
X20550500Y-5448300I-40000J0D01*
G01*
X20550500Y-6083300D02*
G75*
G03*
X20550500Y-6083300I-40000J0D01*
G01*
X20804500Y-4686300D02*
G75*
G03*
X20804500Y-4686300I-40000J0D01*
G01*
X20804500Y-5448300D02*
G75*
G03*
X20804500Y-5448300I-40000J0D01*
G01*
X21058500Y-4686300D02*
G75*
G03*
X21058500Y-4686300I-40000J0D01*
G01*
X21058500Y-5448300D02*
G75*
G03*
X21058500Y-5448300I-40000J0D01*
G01*
X21312500Y-4686300D02*
G75*
G03*
X21312500Y-4686300I-40000J0D01*
G01*
X21312500Y-5448300D02*
G75*
G03*
X21312500Y-5448300I-40000J0D01*
G01*
X22475500Y-6210300D02*
G75*
G03*
X22475500Y-6210300I-40000J0D01*
G01*
X22963500Y-6210300D02*
G75*
G03*
X22963500Y-6210300I-40000J0D01*
G01*
X26010300Y-3160800D02*
G75*
G03*
X26010300Y-3160800I-40000J0D01*
G01*
X26010300Y-3414800D02*
G75*
G03*
X26010300Y-3414800I-40000J0D01*
G01*
X26010300Y-3668800D02*
G75*
G03*
X26010300Y-3668800I-40000J0D01*
G01*
X26010300Y-3922800D02*
G75*
G03*
X26010300Y-3922800I-40000J0D01*
G01*
X26010700Y-5246300D02*
G75*
G03*
X26010700Y-5246300I-40000J0D01*
G01*
X26010700Y-5500300D02*
G75*
G03*
X26010700Y-5500300I-40000J0D01*
G01*
X26010700Y-5754300D02*
G75*
G03*
X26010700Y-5754300I-40000J0D01*
G01*
X26010700Y-6008300D02*
G75*
G03*
X26010700Y-6008300I-40000J0D01*
G01*
X26264300Y-3287800D02*
G75*
G03*
X26264300Y-3287800I-40000J0D01*
G01*
X26264300Y-3541800D02*
G75*
G03*
X26264300Y-3541800I-40000J0D01*
G01*
X26264300Y-3795800D02*
G75*
G03*
X26264300Y-3795800I-40000J0D01*
G01*
X26264300Y-4049800D02*
G75*
G03*
X26264300Y-4049800I-40000J0D01*
G01*
X26264700Y-5373300D02*
G75*
G03*
X26264700Y-5373300I-40000J0D01*
G01*
X26264700Y-5627300D02*
G75*
G03*
X26264700Y-5627300I-40000J0D01*
G01*
X26264700Y-5881300D02*
G75*
G03*
X26264700Y-5881300I-40000J0D01*
G01*
X26264700Y-6135300D02*
G75*
G03*
X26264700Y-6135300I-40000J0D01*
G01*
D13*
X16085820Y-3106860D02*
X16085820Y-3256860D01*
X16010820Y-3181860D02*
X16160820Y-3181860D01*
X16085820Y-3614860D02*
X16085820Y-3764860D01*
X16010820Y-3689860D02*
X16160820Y-3689860D01*
X16085820Y-4122860D02*
X16085820Y-4272860D01*
X16010820Y-4197860D02*
X16160820Y-4197860D01*
X16090900Y-5179500D02*
X16090900Y-5329500D01*
X16015900Y-5254500D02*
X16165900Y-5254500D01*
X16090900Y-5687500D02*
X16090900Y-5837500D01*
X16015900Y-5762500D02*
X16165900Y-5762500D01*
X17047350Y-2828220D02*
X17047350Y-2978220D01*
X16972350Y-2903220D02*
X17122350Y-2903220D01*
X17047350Y-5073580D02*
X17047350Y-5223580D01*
X16972350Y-5148580D02*
X17122350Y-5148580D01*
X26554300Y-2755300D02*
X26554300Y-2905300D01*
X26479300Y-2830300D02*
X26629300Y-2830300D01*
X26554300Y-4305300D02*
X26554300Y-4455300D01*
X26479300Y-4380300D02*
X26629300Y-4380300D01*
X26554700Y-4840800D02*
X26554700Y-4990800D01*
X26479700Y-4915800D02*
X26629700Y-4915800D01*
X26554700Y-6390800D02*
X26554700Y-6540800D01*
X26479700Y-6465800D02*
X26629700Y-6465800D01*
D11*
X15937119Y-7427476D02*
X15937119Y-7227476D01*
X15984738Y-7227476D01*
X16013309Y-7237000D01*
X16032357Y-7256048D01*
X16041881Y-7275095D01*
X16051405Y-7313190D01*
X16051405Y-7341762D01*
X16041881Y-7379857D01*
X16032357Y-7398905D01*
X16013309Y-7417952D01*
X15984738Y-7427476D01*
X15937119Y-7427476D01*
X16137119Y-7427476D02*
X16137119Y-7294143D01*
X16137119Y-7332238D02*
X16146643Y-7313190D01*
X16156167Y-7303667D01*
X16175214Y-7294143D01*
X16194262Y-7294143D01*
X16260928Y-7427476D02*
X16260928Y-7294143D01*
X16260928Y-7227476D02*
X16251405Y-7237000D01*
X16260928Y-7246524D01*
X16270452Y-7237000D01*
X16260928Y-7227476D01*
X16260928Y-7246524D01*
X16384738Y-7427476D02*
X16365690Y-7417952D01*
X16356167Y-7398905D01*
X16356167Y-7227476D01*
X16489500Y-7427476D02*
X16470452Y-7417952D01*
X16460928Y-7398905D01*
X16460928Y-7227476D01*
X16718071Y-7427476D02*
X16718071Y-7227476D01*
X16784738Y-7370333D01*
X16851405Y-7227476D01*
X16851405Y-7427476D01*
X17032357Y-7427476D02*
X17032357Y-7322714D01*
X17022833Y-7303667D01*
X17003786Y-7294143D01*
X16965690Y-7294143D01*
X16946643Y-7303667D01*
X17032357Y-7417952D02*
X17013310Y-7427476D01*
X16965690Y-7427476D01*
X16946643Y-7417952D01*
X16937119Y-7398905D01*
X16937119Y-7379857D01*
X16946643Y-7360809D01*
X16965690Y-7351286D01*
X17013310Y-7351286D01*
X17032357Y-7341762D01*
X17127595Y-7294143D02*
X17127595Y-7494143D01*
X17127595Y-7303667D02*
X17146643Y-7294143D01*
X17184738Y-7294143D01*
X17203786Y-7303667D01*
X17213310Y-7313190D01*
X17222833Y-7332238D01*
X17222833Y-7389381D01*
X17213310Y-7408428D01*
X17203786Y-7417952D01*
X17184738Y-7427476D01*
X17146643Y-7427476D01*
X17127595Y-7417952D01*
X17308548Y-7408428D02*
X17318071Y-7417952D01*
X17308548Y-7427476D01*
X17299024Y-7417952D01*
X17308548Y-7408428D01*
X17308548Y-7427476D01*
X17308548Y-7303667D02*
X17318071Y-7313190D01*
X17308548Y-7322714D01*
X17299024Y-7313190D01*
X17308548Y-7303667D01*
X17308548Y-7322714D01*
D12*
X15599500Y-7717000D02*
X15679500Y-7797000D01*
X15679500Y-7717000D02*
X15599500Y-7797000D01*
D11*
X15975214Y-7647476D02*
X15994262Y-7647476D01*
X16013309Y-7657000D01*
X16022833Y-7666524D01*
X16032357Y-7685571D01*
X16041881Y-7723667D01*
X16041881Y-7771286D01*
X16032357Y-7809381D01*
X16022833Y-7828428D01*
X16013309Y-7837952D01*
X15994262Y-7847476D01*
X15975214Y-7847476D01*
X15956167Y-7837952D01*
X15946643Y-7828428D01*
X15937119Y-7809381D01*
X15927595Y-7771286D01*
X15927595Y-7723667D01*
X15937119Y-7685571D01*
X15946643Y-7666524D01*
X15956167Y-7657000D01*
X15975214Y-7647476D01*
X16127595Y-7828428D02*
X16137119Y-7837952D01*
X16127595Y-7847476D01*
X16118071Y-7837952D01*
X16127595Y-7828428D01*
X16127595Y-7847476D01*
X16251405Y-7733190D02*
X16232357Y-7723667D01*
X16222833Y-7714143D01*
X16213309Y-7695095D01*
X16213309Y-7685571D01*
X16222833Y-7666524D01*
X16232357Y-7657000D01*
X16251405Y-7647476D01*
X16289500Y-7647476D01*
X16308548Y-7657000D01*
X16318071Y-7666524D01*
X16327595Y-7685571D01*
X16327595Y-7695095D01*
X16318071Y-7714143D01*
X16308548Y-7723667D01*
X16289500Y-7733190D01*
X16251405Y-7733190D01*
X16232357Y-7742714D01*
X16222833Y-7752238D01*
X16213309Y-7771286D01*
X16213309Y-7809381D01*
X16222833Y-7828428D01*
X16232357Y-7837952D01*
X16251405Y-7847476D01*
X16289500Y-7847476D01*
X16308548Y-7837952D01*
X16318071Y-7828428D01*
X16327595Y-7809381D01*
X16327595Y-7771286D01*
X16318071Y-7752238D01*
X16308548Y-7742714D01*
X16289500Y-7733190D01*
X16451405Y-7647476D02*
X16470452Y-7647476D01*
X16489500Y-7657000D01*
X16499024Y-7666524D01*
X16508548Y-7685571D01*
X16518071Y-7723667D01*
X16518071Y-7771286D01*
X16508548Y-7809381D01*
X16499024Y-7828428D01*
X16489500Y-7837952D01*
X16470452Y-7847476D01*
X16451405Y-7847476D01*
X16432357Y-7837952D01*
X16422833Y-7828428D01*
X16413309Y-7809381D01*
X16403786Y-7771286D01*
X16403786Y-7723667D01*
X16413309Y-7685571D01*
X16422833Y-7666524D01*
X16432357Y-7657000D01*
X16451405Y-7647476D01*
X16641881Y-7647476D02*
X16660928Y-7647476D01*
X16679976Y-7657000D01*
X16689500Y-7666524D01*
X16699024Y-7685571D01*
X16708548Y-7723667D01*
X16708548Y-7771286D01*
X16699024Y-7809381D01*
X16689500Y-7828428D01*
X16679976Y-7837952D01*
X16660928Y-7847476D01*
X16641881Y-7847476D01*
X16622833Y-7837952D01*
X16613309Y-7828428D01*
X16603786Y-7809381D01*
X16594262Y-7771286D01*
X16594262Y-7723667D01*
X16603786Y-7685571D01*
X16613309Y-7666524D01*
X16622833Y-7657000D01*
X16641881Y-7647476D01*
X16794262Y-7847476D02*
X16794262Y-7714143D01*
X16794262Y-7733190D02*
X16803786Y-7723667D01*
X16822833Y-7714143D01*
X16851405Y-7714143D01*
X16870452Y-7723667D01*
X16879976Y-7742714D01*
X16879976Y-7847476D01*
X16879976Y-7742714D02*
X16889500Y-7723667D01*
X16908548Y-7714143D01*
X16937119Y-7714143D01*
X16956167Y-7723667D01*
X16965690Y-7742714D01*
X16965690Y-7847476D01*
X17060929Y-7847476D02*
X17060929Y-7714143D01*
X17060929Y-7733190D02*
X17070452Y-7723667D01*
X17089500Y-7714143D01*
X17118071Y-7714143D01*
X17137119Y-7723667D01*
X17146643Y-7742714D01*
X17146643Y-7847476D01*
X17146643Y-7742714D02*
X17156167Y-7723667D01*
X17175214Y-7714143D01*
X17203786Y-7714143D01*
X17222833Y-7723667D01*
X17232357Y-7742714D01*
X17232357Y-7847476D01*
X17622833Y-7637952D02*
X17451405Y-7895095D01*
X17879976Y-7647476D02*
X17899024Y-7647476D01*
X17918071Y-7657000D01*
X17927595Y-7666524D01*
X17937119Y-7685571D01*
X17946643Y-7723667D01*
X17946643Y-7771286D01*
X17937119Y-7809381D01*
X17927595Y-7828428D01*
X17918071Y-7837952D01*
X17899024Y-7847476D01*
X17879976Y-7847476D01*
X17860929Y-7837952D01*
X17851405Y-7828428D01*
X17841881Y-7809381D01*
X17832357Y-7771286D01*
X17832357Y-7723667D01*
X17841881Y-7685571D01*
X17851405Y-7666524D01*
X17860929Y-7657000D01*
X17879976Y-7647476D01*
X18032357Y-7828428D02*
X18041881Y-7837952D01*
X18032357Y-7847476D01*
X18022833Y-7837952D01*
X18032357Y-7828428D01*
X18032357Y-7847476D01*
X18165690Y-7647476D02*
X18184738Y-7647476D01*
X18203786Y-7657000D01*
X18213310Y-7666524D01*
X18222833Y-7685571D01*
X18232357Y-7723667D01*
X18232357Y-7771286D01*
X18222833Y-7809381D01*
X18213310Y-7828428D01*
X18203786Y-7837952D01*
X18184738Y-7847476D01*
X18165690Y-7847476D01*
X18146643Y-7837952D01*
X18137119Y-7828428D01*
X18127595Y-7809381D01*
X18118071Y-7771286D01*
X18118071Y-7723667D01*
X18127595Y-7685571D01*
X18137119Y-7666524D01*
X18146643Y-7657000D01*
X18165690Y-7647476D01*
X18299024Y-7647476D02*
X18422833Y-7647476D01*
X18356167Y-7723667D01*
X18384738Y-7723667D01*
X18403786Y-7733190D01*
X18413310Y-7742714D01*
X18422833Y-7761762D01*
X18422833Y-7809381D01*
X18413310Y-7828428D01*
X18403786Y-7837952D01*
X18384738Y-7847476D01*
X18327595Y-7847476D01*
X18308548Y-7837952D01*
X18299024Y-7828428D01*
X18613310Y-7847476D02*
X18499024Y-7847476D01*
X18556167Y-7847476D02*
X18556167Y-7647476D01*
X18537119Y-7676048D01*
X18518071Y-7695095D01*
X18499024Y-7704619D01*
X18794262Y-7647476D02*
X18699024Y-7647476D01*
X18689500Y-7742714D01*
X18699024Y-7733190D01*
X18718071Y-7723667D01*
X18765690Y-7723667D01*
X18784738Y-7733190D01*
X18794262Y-7742714D01*
X18803786Y-7761762D01*
X18803786Y-7809381D01*
X18794262Y-7828428D01*
X18784738Y-7837952D01*
X18765690Y-7847476D01*
X18718071Y-7847476D01*
X18699024Y-7837952D01*
X18689500Y-7828428D01*
X18879976Y-7647476D02*
X18879976Y-7685571D01*
X18956167Y-7647476D02*
X18956167Y-7685571D01*
X19251405Y-7923667D02*
X19241881Y-7914143D01*
X19222833Y-7885571D01*
X19213310Y-7866524D01*
X19203786Y-7837952D01*
X19194262Y-7790333D01*
X19194262Y-7752238D01*
X19203786Y-7704619D01*
X19213310Y-7676048D01*
X19222833Y-7657000D01*
X19241881Y-7628428D01*
X19251405Y-7618905D01*
X19318071Y-7666524D02*
X19327595Y-7657000D01*
X19346643Y-7647476D01*
X19394262Y-7647476D01*
X19413310Y-7657000D01*
X19422833Y-7666524D01*
X19432357Y-7685571D01*
X19432357Y-7704619D01*
X19422833Y-7733190D01*
X19308548Y-7847476D01*
X19432357Y-7847476D01*
X19603786Y-7714143D02*
X19603786Y-7847476D01*
X19556167Y-7637952D02*
X19508548Y-7780809D01*
X19632357Y-7780809D01*
X19860929Y-7847476D02*
X19860929Y-7647476D01*
X19946643Y-7847476D02*
X19946643Y-7742714D01*
X19937119Y-7723667D01*
X19918071Y-7714143D01*
X19889500Y-7714143D01*
X19870452Y-7723667D01*
X19860929Y-7733190D01*
X20070452Y-7847476D02*
X20051405Y-7837952D01*
X20041881Y-7828428D01*
X20032357Y-7809381D01*
X20032357Y-7752238D01*
X20041881Y-7733190D01*
X20051405Y-7723667D01*
X20070452Y-7714143D01*
X20099024Y-7714143D01*
X20118071Y-7723667D01*
X20127595Y-7733190D01*
X20137119Y-7752238D01*
X20137119Y-7809381D01*
X20127595Y-7828428D01*
X20118071Y-7837952D01*
X20099024Y-7847476D01*
X20070452Y-7847476D01*
X20251405Y-7847476D02*
X20232357Y-7837952D01*
X20222833Y-7818905D01*
X20222833Y-7647476D01*
X20403786Y-7837952D02*
X20384738Y-7847476D01*
X20346643Y-7847476D01*
X20327595Y-7837952D01*
X20318071Y-7818905D01*
X20318071Y-7742714D01*
X20327595Y-7723667D01*
X20346643Y-7714143D01*
X20384738Y-7714143D01*
X20403786Y-7723667D01*
X20413310Y-7742714D01*
X20413310Y-7761762D01*
X20318071Y-7780809D01*
X20489500Y-7837952D02*
X20508548Y-7847476D01*
X20546643Y-7847476D01*
X20565690Y-7837952D01*
X20575214Y-7818905D01*
X20575214Y-7809381D01*
X20565690Y-7790333D01*
X20546643Y-7780809D01*
X20518071Y-7780809D01*
X20499024Y-7771286D01*
X20489500Y-7752238D01*
X20489500Y-7742714D01*
X20499024Y-7723667D01*
X20518071Y-7714143D01*
X20546643Y-7714143D01*
X20565690Y-7723667D01*
X20641881Y-7923667D02*
X20651405Y-7914143D01*
X20670452Y-7885571D01*
X20679976Y-7866524D01*
X20689500Y-7837952D01*
X20699024Y-7790333D01*
X20699024Y-7752238D01*
X20689500Y-7704619D01*
X20679976Y-7676048D01*
X20670452Y-7657000D01*
X20651405Y-7628428D01*
X20641881Y-7618905D01*
D12*
X15679500Y-8021000D02*
G75*
G03*
X15679500Y-8021000I-40000J0D01*
G01*
D11*
X15975214Y-7911476D02*
X15994262Y-7911476D01*
X16013309Y-7921000D01*
X16022833Y-7930524D01*
X16032357Y-7949571D01*
X16041881Y-7987667D01*
X16041881Y-8035286D01*
X16032357Y-8073381D01*
X16022833Y-8092428D01*
X16013309Y-8101952D01*
X15994262Y-8111476D01*
X15975214Y-8111476D01*
X15956167Y-8101952D01*
X15946643Y-8092428D01*
X15937119Y-8073381D01*
X15927595Y-8035286D01*
X15927595Y-7987667D01*
X15937119Y-7949571D01*
X15946643Y-7930524D01*
X15956167Y-7921000D01*
X15975214Y-7911476D01*
X16127595Y-8092428D02*
X16137119Y-8101952D01*
X16127595Y-8111476D01*
X16118071Y-8101952D01*
X16127595Y-8092428D01*
X16127595Y-8111476D01*
X16251405Y-7997190D02*
X16232357Y-7987667D01*
X16222833Y-7978143D01*
X16213309Y-7959095D01*
X16213309Y-7949571D01*
X16222833Y-7930524D01*
X16232357Y-7921000D01*
X16251405Y-7911476D01*
X16289500Y-7911476D01*
X16308548Y-7921000D01*
X16318071Y-7930524D01*
X16327595Y-7949571D01*
X16327595Y-7959095D01*
X16318071Y-7978143D01*
X16308548Y-7987667D01*
X16289500Y-7997190D01*
X16251405Y-7997190D01*
X16232357Y-8006714D01*
X16222833Y-8016238D01*
X16213309Y-8035286D01*
X16213309Y-8073381D01*
X16222833Y-8092428D01*
X16232357Y-8101952D01*
X16251405Y-8111476D01*
X16289500Y-8111476D01*
X16308548Y-8101952D01*
X16318071Y-8092428D01*
X16327595Y-8073381D01*
X16327595Y-8035286D01*
X16318071Y-8016238D01*
X16308548Y-8006714D01*
X16289500Y-7997190D01*
X16451405Y-7911476D02*
X16470452Y-7911476D01*
X16489500Y-7921000D01*
X16499024Y-7930524D01*
X16508548Y-7949571D01*
X16518071Y-7987667D01*
X16518071Y-8035286D01*
X16508548Y-8073381D01*
X16499024Y-8092428D01*
X16489500Y-8101952D01*
X16470452Y-8111476D01*
X16451405Y-8111476D01*
X16432357Y-8101952D01*
X16422833Y-8092428D01*
X16413309Y-8073381D01*
X16403786Y-8035286D01*
X16403786Y-7987667D01*
X16413309Y-7949571D01*
X16422833Y-7930524D01*
X16432357Y-7921000D01*
X16451405Y-7911476D01*
X16641881Y-7911476D02*
X16660928Y-7911476D01*
X16679976Y-7921000D01*
X16689500Y-7930524D01*
X16699024Y-7949571D01*
X16708548Y-7987667D01*
X16708548Y-8035286D01*
X16699024Y-8073381D01*
X16689500Y-8092428D01*
X16679976Y-8101952D01*
X16660928Y-8111476D01*
X16641881Y-8111476D01*
X16622833Y-8101952D01*
X16613309Y-8092428D01*
X16603786Y-8073381D01*
X16594262Y-8035286D01*
X16594262Y-7987667D01*
X16603786Y-7949571D01*
X16613309Y-7930524D01*
X16622833Y-7921000D01*
X16641881Y-7911476D01*
X16794262Y-8111476D02*
X16794262Y-7978143D01*
X16794262Y-7997190D02*
X16803786Y-7987667D01*
X16822833Y-7978143D01*
X16851405Y-7978143D01*
X16870452Y-7987667D01*
X16879976Y-8006714D01*
X16879976Y-8111476D01*
X16879976Y-8006714D02*
X16889500Y-7987667D01*
X16908548Y-7978143D01*
X16937119Y-7978143D01*
X16956167Y-7987667D01*
X16965690Y-8006714D01*
X16965690Y-8111476D01*
X17060929Y-8111476D02*
X17060929Y-7978143D01*
X17060929Y-7997190D02*
X17070452Y-7987667D01*
X17089500Y-7978143D01*
X17118071Y-7978143D01*
X17137119Y-7987667D01*
X17146643Y-8006714D01*
X17146643Y-8111476D01*
X17146643Y-8006714D02*
X17156167Y-7987667D01*
X17175214Y-7978143D01*
X17203786Y-7978143D01*
X17222833Y-7987667D01*
X17232357Y-8006714D01*
X17232357Y-8111476D01*
X17622833Y-7901952D02*
X17451405Y-8159095D01*
X17879976Y-7911476D02*
X17899024Y-7911476D01*
X17918071Y-7921000D01*
X17927595Y-7930524D01*
X17937119Y-7949571D01*
X17946643Y-7987667D01*
X17946643Y-8035286D01*
X17937119Y-8073381D01*
X17927595Y-8092428D01*
X17918071Y-8101952D01*
X17899024Y-8111476D01*
X17879976Y-8111476D01*
X17860929Y-8101952D01*
X17851405Y-8092428D01*
X17841881Y-8073381D01*
X17832357Y-8035286D01*
X17832357Y-7987667D01*
X17841881Y-7949571D01*
X17851405Y-7930524D01*
X17860929Y-7921000D01*
X17879976Y-7911476D01*
X18032357Y-8092428D02*
X18041881Y-8101952D01*
X18032357Y-8111476D01*
X18022833Y-8101952D01*
X18032357Y-8092428D01*
X18032357Y-8111476D01*
X18165690Y-7911476D02*
X18184738Y-7911476D01*
X18203786Y-7921000D01*
X18213310Y-7930524D01*
X18222833Y-7949571D01*
X18232357Y-7987667D01*
X18232357Y-8035286D01*
X18222833Y-8073381D01*
X18213310Y-8092428D01*
X18203786Y-8101952D01*
X18184738Y-8111476D01*
X18165690Y-8111476D01*
X18146643Y-8101952D01*
X18137119Y-8092428D01*
X18127595Y-8073381D01*
X18118071Y-8035286D01*
X18118071Y-7987667D01*
X18127595Y-7949571D01*
X18137119Y-7930524D01*
X18146643Y-7921000D01*
X18165690Y-7911476D01*
X18299024Y-7911476D02*
X18422833Y-7911476D01*
X18356167Y-7987667D01*
X18384738Y-7987667D01*
X18403786Y-7997190D01*
X18413310Y-8006714D01*
X18422833Y-8025762D01*
X18422833Y-8073381D01*
X18413310Y-8092428D01*
X18403786Y-8101952D01*
X18384738Y-8111476D01*
X18327595Y-8111476D01*
X18308548Y-8101952D01*
X18299024Y-8092428D01*
X18613310Y-8111476D02*
X18499024Y-8111476D01*
X18556167Y-8111476D02*
X18556167Y-7911476D01*
X18537119Y-7940048D01*
X18518071Y-7959095D01*
X18499024Y-7968619D01*
X18794262Y-7911476D02*
X18699024Y-7911476D01*
X18689500Y-8006714D01*
X18699024Y-7997190D01*
X18718071Y-7987667D01*
X18765690Y-7987667D01*
X18784738Y-7997190D01*
X18794262Y-8006714D01*
X18803786Y-8025762D01*
X18803786Y-8073381D01*
X18794262Y-8092428D01*
X18784738Y-8101952D01*
X18765690Y-8111476D01*
X18718071Y-8111476D01*
X18699024Y-8101952D01*
X18689500Y-8092428D01*
X18879976Y-7911476D02*
X18879976Y-7949571D01*
X18956167Y-7911476D02*
X18956167Y-7949571D01*
X19251405Y-8187667D02*
X19241881Y-8178143D01*
X19222833Y-8149571D01*
X19213310Y-8130524D01*
X19203786Y-8101952D01*
X19194262Y-8054333D01*
X19194262Y-8016238D01*
X19203786Y-7968619D01*
X19213310Y-7940048D01*
X19222833Y-7921000D01*
X19241881Y-7892428D01*
X19251405Y-7882905D01*
X19422833Y-7911476D02*
X19327595Y-7911476D01*
X19318071Y-8006714D01*
X19327595Y-7997190D01*
X19346643Y-7987667D01*
X19394262Y-7987667D01*
X19413310Y-7997190D01*
X19422833Y-8006714D01*
X19432357Y-8025762D01*
X19432357Y-8073381D01*
X19422833Y-8092428D01*
X19413310Y-8101952D01*
X19394262Y-8111476D01*
X19346643Y-8111476D01*
X19327595Y-8101952D01*
X19318071Y-8092428D01*
X19508548Y-7930524D02*
X19518071Y-7921000D01*
X19537119Y-7911476D01*
X19584738Y-7911476D01*
X19603786Y-7921000D01*
X19613310Y-7930524D01*
X19622833Y-7949571D01*
X19622833Y-7968619D01*
X19613310Y-7997190D01*
X19499024Y-8111476D01*
X19622833Y-8111476D01*
X19860929Y-8111476D02*
X19860929Y-7911476D01*
X19946643Y-8111476D02*
X19946643Y-8006714D01*
X19937119Y-7987667D01*
X19918071Y-7978143D01*
X19889500Y-7978143D01*
X19870452Y-7987667D01*
X19860929Y-7997190D01*
X20070452Y-8111476D02*
X20051405Y-8101952D01*
X20041881Y-8092428D01*
X20032357Y-8073381D01*
X20032357Y-8016238D01*
X20041881Y-7997190D01*
X20051405Y-7987667D01*
X20070452Y-7978143D01*
X20099024Y-7978143D01*
X20118071Y-7987667D01*
X20127595Y-7997190D01*
X20137119Y-8016238D01*
X20137119Y-8073381D01*
X20127595Y-8092428D01*
X20118071Y-8101952D01*
X20099024Y-8111476D01*
X20070452Y-8111476D01*
X20251405Y-8111476D02*
X20232357Y-8101952D01*
X20222833Y-8082905D01*
X20222833Y-7911476D01*
X20403786Y-8101952D02*
X20384738Y-8111476D01*
X20346643Y-8111476D01*
X20327595Y-8101952D01*
X20318071Y-8082905D01*
X20318071Y-8006714D01*
X20327595Y-7987667D01*
X20346643Y-7978143D01*
X20384738Y-7978143D01*
X20403786Y-7987667D01*
X20413310Y-8006714D01*
X20413310Y-8025762D01*
X20318071Y-8044809D01*
X20489500Y-8101952D02*
X20508548Y-8111476D01*
X20546643Y-8111476D01*
X20565690Y-8101952D01*
X20575214Y-8082905D01*
X20575214Y-8073381D01*
X20565690Y-8054333D01*
X20546643Y-8044809D01*
X20518071Y-8044809D01*
X20499024Y-8035286D01*
X20489500Y-8016238D01*
X20489500Y-8006714D01*
X20499024Y-7987667D01*
X20518071Y-7978143D01*
X20546643Y-7978143D01*
X20565690Y-7987667D01*
X20641881Y-8187667D02*
X20651405Y-8178143D01*
X20670452Y-8149571D01*
X20679976Y-8130524D01*
X20689500Y-8101952D01*
X20699024Y-8054333D01*
X20699024Y-8016238D01*
X20689500Y-7968619D01*
X20679976Y-7940048D01*
X20670452Y-7921000D01*
X20651405Y-7892428D01*
X20641881Y-7882905D01*
D13*
X15604500Y-8210000D02*
X15604500Y-8360000D01*
X15529500Y-8285000D02*
X15679500Y-8285000D01*
D11*
X16041881Y-8375476D02*
X15927595Y-8375476D01*
X15984738Y-8375476D02*
X15984738Y-8175476D01*
X15965690Y-8204048D01*
X15946643Y-8223095D01*
X15927595Y-8232619D01*
X16127595Y-8356428D02*
X16137119Y-8365952D01*
X16127595Y-8375476D01*
X16118071Y-8365952D01*
X16127595Y-8356428D01*
X16127595Y-8375476D01*
X16318071Y-8175476D02*
X16222833Y-8175476D01*
X16213309Y-8270714D01*
X16222833Y-8261190D01*
X16241881Y-8251667D01*
X16289500Y-8251667D01*
X16308548Y-8261190D01*
X16318071Y-8270714D01*
X16327595Y-8289762D01*
X16327595Y-8337381D01*
X16318071Y-8356428D01*
X16308548Y-8365952D01*
X16289500Y-8375476D01*
X16241881Y-8375476D01*
X16222833Y-8365952D01*
X16213309Y-8356428D01*
X16451405Y-8175476D02*
X16470452Y-8175476D01*
X16489500Y-8185000D01*
X16499024Y-8194524D01*
X16508548Y-8213571D01*
X16518071Y-8251667D01*
X16518071Y-8299286D01*
X16508548Y-8337381D01*
X16499024Y-8356428D01*
X16489500Y-8365952D01*
X16470452Y-8375476D01*
X16451405Y-8375476D01*
X16432357Y-8365952D01*
X16422833Y-8356428D01*
X16413309Y-8337381D01*
X16403786Y-8299286D01*
X16403786Y-8251667D01*
X16413309Y-8213571D01*
X16422833Y-8194524D01*
X16432357Y-8185000D01*
X16451405Y-8175476D01*
X16641881Y-8175476D02*
X16660928Y-8175476D01*
X16679976Y-8185000D01*
X16689500Y-8194524D01*
X16699024Y-8213571D01*
X16708548Y-8251667D01*
X16708548Y-8299286D01*
X16699024Y-8337381D01*
X16689500Y-8356428D01*
X16679976Y-8365952D01*
X16660928Y-8375476D01*
X16641881Y-8375476D01*
X16622833Y-8365952D01*
X16613309Y-8356428D01*
X16603786Y-8337381D01*
X16594262Y-8299286D01*
X16594262Y-8251667D01*
X16603786Y-8213571D01*
X16613309Y-8194524D01*
X16622833Y-8185000D01*
X16641881Y-8175476D01*
X16794262Y-8375476D02*
X16794262Y-8242143D01*
X16794262Y-8261190D02*
X16803786Y-8251667D01*
X16822833Y-8242143D01*
X16851405Y-8242143D01*
X16870452Y-8251667D01*
X16879976Y-8270714D01*
X16879976Y-8375476D01*
X16879976Y-8270714D02*
X16889500Y-8251667D01*
X16908548Y-8242143D01*
X16937119Y-8242143D01*
X16956167Y-8251667D01*
X16965690Y-8270714D01*
X16965690Y-8375476D01*
X17060929Y-8375476D02*
X17060929Y-8242143D01*
X17060929Y-8261190D02*
X17070452Y-8251667D01*
X17089500Y-8242143D01*
X17118071Y-8242143D01*
X17137119Y-8251667D01*
X17146643Y-8270714D01*
X17146643Y-8375476D01*
X17146643Y-8270714D02*
X17156167Y-8251667D01*
X17175214Y-8242143D01*
X17203786Y-8242143D01*
X17222833Y-8251667D01*
X17232357Y-8270714D01*
X17232357Y-8375476D01*
X17622833Y-8165952D02*
X17451405Y-8423095D01*
X17879976Y-8175476D02*
X17899024Y-8175476D01*
X17918071Y-8185000D01*
X17927595Y-8194524D01*
X17937119Y-8213571D01*
X17946643Y-8251667D01*
X17946643Y-8299286D01*
X17937119Y-8337381D01*
X17927595Y-8356428D01*
X17918071Y-8365952D01*
X17899024Y-8375476D01*
X17879976Y-8375476D01*
X17860929Y-8365952D01*
X17851405Y-8356428D01*
X17841881Y-8337381D01*
X17832357Y-8299286D01*
X17832357Y-8251667D01*
X17841881Y-8213571D01*
X17851405Y-8194524D01*
X17860929Y-8185000D01*
X17879976Y-8175476D01*
X18032357Y-8356428D02*
X18041881Y-8365952D01*
X18032357Y-8375476D01*
X18022833Y-8365952D01*
X18032357Y-8356428D01*
X18032357Y-8375476D01*
X18165690Y-8175476D02*
X18184738Y-8175476D01*
X18203786Y-8185000D01*
X18213310Y-8194524D01*
X18222833Y-8213571D01*
X18232357Y-8251667D01*
X18232357Y-8299286D01*
X18222833Y-8337381D01*
X18213310Y-8356428D01*
X18203786Y-8365952D01*
X18184738Y-8375476D01*
X18165690Y-8375476D01*
X18146643Y-8365952D01*
X18137119Y-8356428D01*
X18127595Y-8337381D01*
X18118071Y-8299286D01*
X18118071Y-8251667D01*
X18127595Y-8213571D01*
X18137119Y-8194524D01*
X18146643Y-8185000D01*
X18165690Y-8175476D01*
X18413310Y-8175476D02*
X18318071Y-8175476D01*
X18308548Y-8270714D01*
X18318071Y-8261190D01*
X18337119Y-8251667D01*
X18384738Y-8251667D01*
X18403786Y-8261190D01*
X18413310Y-8270714D01*
X18422833Y-8289762D01*
X18422833Y-8337381D01*
X18413310Y-8356428D01*
X18403786Y-8365952D01*
X18384738Y-8375476D01*
X18337119Y-8375476D01*
X18318071Y-8365952D01*
X18308548Y-8356428D01*
X18518071Y-8375476D02*
X18556167Y-8375476D01*
X18575214Y-8365952D01*
X18584738Y-8356428D01*
X18603786Y-8327857D01*
X18613310Y-8289762D01*
X18613310Y-8213571D01*
X18603786Y-8194524D01*
X18594262Y-8185000D01*
X18575214Y-8175476D01*
X18537119Y-8175476D01*
X18518071Y-8185000D01*
X18508548Y-8194524D01*
X18499024Y-8213571D01*
X18499024Y-8261190D01*
X18508548Y-8280238D01*
X18518071Y-8289762D01*
X18537119Y-8299286D01*
X18575214Y-8299286D01*
X18594262Y-8289762D01*
X18603786Y-8280238D01*
X18613310Y-8261190D01*
X18803786Y-8375476D02*
X18689500Y-8375476D01*
X18746643Y-8375476D02*
X18746643Y-8175476D01*
X18727595Y-8204048D01*
X18708548Y-8223095D01*
X18689500Y-8232619D01*
X18879976Y-8175476D02*
X18879976Y-8213571D01*
X18956167Y-8175476D02*
X18956167Y-8213571D01*
X19251405Y-8451667D02*
X19241881Y-8442143D01*
X19222833Y-8413571D01*
X19213310Y-8394524D01*
X19203786Y-8365952D01*
X19194262Y-8318333D01*
X19194262Y-8280238D01*
X19203786Y-8232619D01*
X19213310Y-8204048D01*
X19222833Y-8185000D01*
X19241881Y-8156428D01*
X19251405Y-8146905D01*
X19432357Y-8375476D02*
X19318071Y-8375476D01*
X19375214Y-8375476D02*
X19375214Y-8175476D01*
X19356167Y-8204048D01*
X19337119Y-8223095D01*
X19318071Y-8232619D01*
X19622833Y-8375476D02*
X19508548Y-8375476D01*
X19565690Y-8375476D02*
X19565690Y-8175476D01*
X19546643Y-8204048D01*
X19527595Y-8223095D01*
X19508548Y-8232619D01*
X19860929Y-8375476D02*
X19860929Y-8175476D01*
X19946643Y-8375476D02*
X19946643Y-8270714D01*
X19937119Y-8251667D01*
X19918071Y-8242143D01*
X19889500Y-8242143D01*
X19870452Y-8251667D01*
X19860929Y-8261190D01*
X20070452Y-8375476D02*
X20051405Y-8365952D01*
X20041881Y-8356428D01*
X20032357Y-8337381D01*
X20032357Y-8280238D01*
X20041881Y-8261190D01*
X20051405Y-8251667D01*
X20070452Y-8242143D01*
X20099024Y-8242143D01*
X20118071Y-8251667D01*
X20127595Y-8261190D01*
X20137119Y-8280238D01*
X20137119Y-8337381D01*
X20127595Y-8356428D01*
X20118071Y-8365952D01*
X20099024Y-8375476D01*
X20070452Y-8375476D01*
X20251405Y-8375476D02*
X20232357Y-8365952D01*
X20222833Y-8346905D01*
X20222833Y-8175476D01*
X20403786Y-8365952D02*
X20384738Y-8375476D01*
X20346643Y-8375476D01*
X20327595Y-8365952D01*
X20318071Y-8346905D01*
X20318071Y-8270714D01*
X20327595Y-8251667D01*
X20346643Y-8242143D01*
X20384738Y-8242143D01*
X20403786Y-8251667D01*
X20413310Y-8270714D01*
X20413310Y-8289762D01*
X20318071Y-8308809D01*
X20489500Y-8365952D02*
X20508548Y-8375476D01*
X20546643Y-8375476D01*
X20565690Y-8365952D01*
X20575214Y-8346905D01*
X20575214Y-8337381D01*
X20565690Y-8318333D01*
X20546643Y-8308809D01*
X20518071Y-8308809D01*
X20499024Y-8299286D01*
X20489500Y-8280238D01*
X20489500Y-8270714D01*
X20499024Y-8251667D01*
X20518071Y-8242143D01*
X20546643Y-8242143D01*
X20565690Y-8251667D01*
X20641881Y-8451667D02*
X20651405Y-8442143D01*
X20670452Y-8413571D01*
X20679976Y-8394524D01*
X20689500Y-8365952D01*
X20699024Y-8318333D01*
X20699024Y-8280238D01*
X20689500Y-8232619D01*
X20679976Y-8204048D01*
X20670452Y-8185000D01*
X20651405Y-8156428D01*
X20641881Y-8146905D01*
M02*
