M48
; DRILL file {KiCad (6.0.2)} date Fri 18 Feb 2022 01:26:49 AM -03
; FORMAT={-:-/ absolute / metric / decimal}
; #@! TF.CreationDate,2022-02-18T01:26:49-03:00
; #@! TF.GenerationSoftware,Kicad,Pcbnew,(6.0.2)
; #@! TF.FileFunction,Plated,1,2,PTH
FMAT,2
METRIC
; #@! TA.AperFunction,Plated,PTH,ViaDrill
T1C0.800
; #@! TA.AperFunction,Plated,PTH,ComponentDrill
T2C0.800
; #@! TA.AperFunction,Plated,PTH,ComponentDrill
T3C1.500
%
G90
G05
T1
X169.799Y-35.814
X170.053Y-45.847
X170.27Y-42.837
X174.625Y-45.72
X187.96Y-21.59
X187.96Y-26.67
X190.754Y-61.722
X195.199Y-61.722
X216.281Y-57.531
X216.484Y-36.855
X218.059Y-47.522
X218.059Y-52.705
X219.853Y-57.547
X220.98Y-36.754
X251.587Y-48.514
X251.61Y-46.776
X251.638Y-40.853
X255.295Y-41.529
X255.324Y-46.776
X256.972Y-38.368
X257.078Y-35.091
X257.28Y-48.514
X257.334Y-46.776
X257.446Y-42.988
T2
X179.705Y-46.863
X179.705Y-54.483
X179.705Y-66.802
X182.245Y-46.863
X182.245Y-54.483
X182.245Y-66.802
X184.785Y-46.863
X184.785Y-54.483
X184.785Y-66.802
X187.325Y-46.863
X187.325Y-54.483
X187.325Y-66.802
X189.865Y-46.863
X189.865Y-54.483
X192.405Y-46.863
X192.405Y-54.483
X194.945Y-46.863
X194.945Y-54.483
X197.485Y-46.863
X197.485Y-54.483
X200.025Y-46.863
X200.025Y-54.483
X200.225Y-60.833
X202.565Y-46.863
X202.565Y-54.483
X205.105Y-46.863
X205.105Y-54.483
X205.105Y-60.833
X207.645Y-46.863
X207.645Y-54.483
X210.185Y-46.863
X210.185Y-54.483
X212.725Y-46.863
X212.725Y-54.483
X224.355Y-62.103
X229.235Y-62.103
X259.703Y-31.608
X259.703Y-34.148
X259.703Y-36.688
X259.703Y-39.228
X259.707Y-52.463
X259.707Y-55.003
X259.707Y-57.543
X259.707Y-60.083
X262.243Y-32.878
X262.243Y-35.418
X262.243Y-37.958
X262.243Y-40.498
X262.247Y-53.733
X262.247Y-56.273
X262.247Y-58.813
X262.247Y-61.353
T3
X160.858Y-31.819
X160.858Y-36.899
X160.858Y-41.979
X160.909Y-52.545
X160.909Y-57.625
X170.474Y-29.032
X170.474Y-51.486
X265.543Y-28.303
X265.543Y-43.803
X265.547Y-49.158
X265.547Y-64.658
T0
M30
